<?xml version="1.0" encoding="utf-8"?>
<!-- Generator: Adobe Illustrator 28.0.0, SVG Export Plug-In . SVG Version: 6.00 Build 0)  -->
<svg version="1.1" id="Capa_1" xmlns="http://www.w3.org/2000/svg" xmlns:xlink="http://www.w3.org/1999/xlink" x="0px" y="0px"
	 viewBox="0 0 48 48" style="enable-background:new 0 0 48 48;" xml:space="preserve">
<style type="text/css">
	.st0{fill:none;}
	.st1{fill:#1B73E8;}
</style>
<rect y="0" class="st0" width="48" height="48"/>
<g>
	<path class="st1" d="M15.5,31.9c-0.4,0-0.8,0-1.2,0c-1.4,0-2.5-1-2.7-2.4c0-0.1,0-0.2,0-0.3c0-4.2,0-8.4,0-12.6
		c0-1.3,0.9-2.4,2.2-2.7c0.2-0.1,0.5-0.1,0.7-0.1c6.7,0,13.5,0,20.2,0c1.7,0,2.9,1.2,2.9,2.9c0,4.1,0,8.2,0,12.3
		c0,1.7-1.2,2.8-2.9,2.8c-3.9,0-7.8,0-11.8,0c-0.2,0-0.4,0.1-0.5,0.2c-1.6,1.7-3.2,3.4-4.8,5c-0.6,0.7-1.6,0.5-1.9-0.4
		c-0.1-0.2-0.1-0.4-0.1-0.5c0-1.3,0-2.7,0-4C15.5,32.1,15.5,32,15.5,31.9z M16.6,36.3C16.7,36.3,16.7,36.3,16.6,36.3
		c0.1,0,0.2-0.1,0.3-0.2c1.6-1.7,3.2-3.3,4.8-5c0.2-0.2,0.5-0.3,0.8-0.3c4,0,8.1,0,12.1,0c1,0,1.8-0.7,1.8-1.8c0-4.1,0-8.2,0-12.3
		c0-0.7-0.3-1.2-0.9-1.5C35.2,15,34.9,15,34.5,15c-6.7,0-13.3,0-20,0c-0.1,0-0.1,0-0.2,0c-1,0-1.7,0.8-1.7,1.7c0,4.1,0,8.2,0,12.3
		c0,1,0.7,1.7,1.7,1.7c0.5,0,1,0,1.5,0c0.6,0,0.8,0.2,0.8,0.7c0,1.5,0,3,0,4.5C16.6,36.1,16.6,36.2,16.6,36.3z"/>
	<path class="st1" d="M24.6,23.4c-2.2,0-4.4,0-6.5,0c-0.1,0-0.2,0-0.3,0c-0.3,0-0.5-0.3-0.5-0.5c0-0.3,0.2-0.5,0.5-0.6
		c0.1,0,0.2,0,0.3,0c4.4,0,8.8,0,13.2,0c0.1,0,0.2,0,0.3,0c0.3,0,0.5,0.3,0.5,0.6c0,0.3-0.2,0.5-0.5,0.5c-0.1,0-0.2,0-0.3,0
		C28.9,23.4,26.7,23.4,24.6,23.4z"/>
	<path class="st1" d="M23.4,26.8c-1.8,0-3.6,0-5.3,0c-0.1,0-0.1,0-0.2,0c-0.4,0-0.7-0.2-0.7-0.6c0-0.3,0.3-0.6,0.6-0.6
		c3.7,0,7.4,0,11.1,0c0.4,0,0.6,0.2,0.6,0.6c0,0.3-0.2,0.6-0.6,0.6C27.1,26.8,25.3,26.8,23.4,26.8z"/>
	<path class="st1" d="M20.6,20c-0.9,0-1.7,0-2.6,0c-0.1,0-0.1,0-0.2,0c-0.4,0-0.6-0.3-0.6-0.6c0-0.3,0.3-0.5,0.6-0.6
		c0.1,0,0.2,0,0.3,0c1.7,0,3.4,0,5.1,0c0.1,0,0.2,0,0.3,0c0.3,0,0.5,0.3,0.5,0.6c0,0.3-0.2,0.5-0.5,0.5c-0.5,0-0.9,0-1.4,0
		C21.6,20,21.1,20,20.6,20z"/>
</g>
</svg>
