<?xml version="1.0" encoding="UTF-8"?>
<svg id="Capa_1" data-name="Capa 1" xmlns="http://www.w3.org/2000/svg" version="1.1" viewBox="0 0 48 48">
  <defs>
    <style>
      .cls-1 {
        fill: none;
      }

      .cls-1, .cls-2 {
        stroke-width: 0px;
      }

      .cls-2 {
        fill: #fff;
      }
    </style>
  </defs>
  <rect class="cls-1" width="48" height="48"/>
  <g>
    <path class="cls-2" d="M15.5,31.9h-1.2c-1.4,0-2.5-1-2.7-2.4v-12.9c0-1.3.9-2.4,2.2-2.7.2-.1.5-.1.7-.1h20.2c1.7,0,2.9,1.2,2.9,2.9v12.3c0,1.7-1.2,2.8-2.9,2.8h-11.8c-.2,0-.4.1-.5.2-1.6,1.7-3.2,3.4-4.8,5-.6.7-1.6.5-1.9-.4-.1-.2-.1-.4-.1-.5v-4c-.1,0-.1,0-.1-.2ZM16.6,36.3q.1,0,0,0c.1,0,.2,0,.3-.2,1.6-1.7,3.2-3.3,4.8-5,.2-.2.5-.3.8-.3h12.1c1,0,1.8-.7,1.8-1.8v-12.3c0-.7-.3-1.2-.9-1.5-.3-.2-.6-.2-1-.2H14.3c-1,0-1.7.8-1.7,1.7v12.3c0,1,.7,1.7,1.7,1.7h1.5c.6,0,.8.2.8.7v4.9Z"/>
    <path class="cls-2" d="M24.6,23.4h-6.8c-.3,0-.5-.3-.5-.5,0-.3.2-.5.5-.6h13.8c.3,0,.5.3.5.6s-.2.5-.5.5h-7Z"/>
    <path class="cls-2" d="M23.4,26.8h-5.5c-.4,0-.7-.2-.7-.6s.3-.6.6-.6h11.1c.4,0,.6.2.6.6s-.2.6-.6.6h-5.5Z"/>
    <path class="cls-2" d="M20.6,20h-2.8c-.4,0-.6-.3-.6-.6s.3-.5.6-.6h5.7c.3,0,.5.3.5.6s-.2.5-.5.5h-1.4c-.5.1-1,.1-1.5.1Z"/>
  </g>
</svg>